<?xml version="1.0" standalone="no"?>
<!DOCTYPE svg PUBLIC "-//W3C//DTD SVG 20010904//EN"
 "http://www.w3.org/TR/2001/REC-SVG-20010904/DTD/svg10.dtd">
<svg version="1.0" xmlns="http://www.w3.org/2000/svg"
 width="500.000000pt" height="500.000000pt" viewBox="0 0 500.000000 500.000000"
 preserveAspectRatio="xMidYMid meet">
<metadata>
Created by potrace 1.14, written by Peter Selinger 2001-2017
</metadata>
<g transform="translate(0.000000,500.000000) scale(0.100000,-0.100000)"
fill="#000000" stroke="none">
<path d="M3467 4342 c-23 -26 -21 -58 4 -76 19 -13 25 -13 50 0 31 15 37 41
19 75 -13 24 -52 25 -73 1z"/>
<path d="M2557 4279 c-10 -11 -23 -17 -30 -13 -7 4 -9 3 -4 -1 4 -5 0 -16 -9
-26 -12 -13 -22 -16 -40 -9 -31 12 -80 5 -100 -15 -15 -15 -19 -14 -43 9 -38
37 -99 59 -157 58 -95 -1 -167 -48 -209 -137 -25 -53 -26 -54 -53 -43 -15 7
-33 19 -40 27 -11 13 -12 12 -8 -9 2 -14 5 -25 6 -25 1 0 3 -11 6 -25 2 -14
11 -30 19 -36 8 -6 12 -14 8 -17 -12 -12 -36 -7 -49 11 -12 15 -15 15 -24 2
-5 -8 -8 -21 -5 -28 9 -23 -27 -27 -46 -4 -14 18 -18 19 -23 6 -3 -9 -11 -12
-18 -8 -6 4 -1 -9 12 -30 19 -31 20 -40 9 -47 -19 -12 -33 -11 -48 4 -19 19
-141 14 -157 -7 -6 -9 -18 -14 -27 -10 -12 4 -14 1 -10 -14 6 -24 -21 -36 -49
-21 -11 6 -22 8 -25 5 -3 -3 -17 7 -29 22 -13 15 -24 22 -24 15 0 -12 56 -63
70 -63 4 0 0 -15 -9 -34 -12 -25 -19 -31 -28 -24 -9 7 -13 6 -14 -3 -2 -36 -6
-59 -11 -65 -3 -3 -22 9 -41 25 -51 45 -57 38 -9 -11 41 -41 51 -68 12 -33
-11 10 -20 15 -20 11 0 -7 34 -84 52 -119 19 -36 -19 -29 -58 12 -30 30 -49
41 -84 45 -29 4 -40 3 -31 -3 7 -5 10 -14 7 -20 -4 -6 -2 -11 5 -11 7 0 9 -3
6 -7 -4 -3 8 -17 25 -30 18 -12 27 -23 20 -23 -7 0 -11 -3 -11 -7 1 -5 1 -12
0 -16 -1 -12 -137 63 -243 134 -98 65 -119 72 -33 11 66 -47 120 -96 158 -142
25 -29 26 -35 13 -42 -9 -5 -16 -15 -16 -22 0 -20 -27 -40 -35 -26 -3 5 -17
10 -31 10 -14 0 -34 5 -45 11 -33 17 -48 -3 -35 -46 6 -19 14 -35 18 -35 5 0
8 -5 8 -11 0 -6 -7 -8 -16 -5 -9 4 -23 1 -30 -5 -8 -6 -24 -9 -36 -6 -16 4
-33 -3 -57 -23 -27 -23 -34 -37 -36 -70 -2 -30 2 -44 14 -49 9 -3 40 -22 69
-41 42 -27 50 -35 37 -42 -17 -10 -55 -1 -55 13 0 5 -4 9 -9 9 -10 0 -2 -48
10 -56 18 -11 8 -24 -19 -24 -46 0 -102 -64 -118 -135 -16 -66 11 -159 48
-171 13 -4 18 -12 15 -25 -5 -17 -3 -18 24 -3 21 10 34 12 47 5 16 -10 15 -10
-2 -11 -14 0 -17 -3 -9 -11 11 -11 -16 -76 -40 -94 -26 -19 -34 -47 -26 -84 9
-39 5 -51 -13 -33 -13 13 -45 0 -65 -27 -34 -44 11 -128 63 -118 19 3 29 -3
46 -25 20 -29 20 -32 5 -64 -9 -19 -21 -34 -26 -34 -32 0 -34 -142 -2 -214 35
-79 105 -141 148 -130 11 3 25 -1 32 -9 10 -13 7 -18 -18 -33 -34 -20 -36 -26
-20 -56 15 -28 20 -99 8 -114 -6 -8 -2 -10 15 -7 13 3 29 16 35 30 9 21 14 23
26 13 17 -14 11 -30 -11 -30 -8 0 -13 -5 -12 -12 2 -6 -12 -16 -29 -21 -35
-11 -44 -27 -15 -27 14 0 15 -2 2 -9 -8 -6 -18 -7 -24 -4 -5 3 -6 1 -2 -5 3
-5 3 -12 -1 -14 -11 -4 -58 -58 -51 -58 5 0 65 45 107 80 27 24 42 19 17 -5
-9 -9 -16 -21 -16 -26 0 -5 -16 -17 -35 -26 -39 -19 -46 -36 -13 -31 15 2 24
-3 26 -14 2 -11 -43 -54 -140 -132 -153 -124 -257 -216 -246 -216 4 0 31 19
60 43 29 24 76 58 103 77 28 19 56 40 63 47 17 17 49 17 54 1 3 -8 26 3 63 32
122 95 136 104 143 94 4 -5 21 -11 39 -12 24 -2 37 5 55 27 27 31 62 54 71 45
3 -4 2 -17 -4 -30 -6 -18 -5 -31 6 -47 18 -28 12 -67 -13 -88 -11 -8 -23 -25
-26 -37 -7 -20 -5 -21 16 -11 13 6 38 30 56 55 33 44 61 60 47 27 -11 -27 -6
-95 11 -127 7 -16 14 -40 14 -54 0 -21 2 -22 15 -12 12 10 15 9 15 -6 1 -17 2
-17 10 -3 6 11 19 14 39 11 17 -2 28 -8 25 -13 -3 -5 1 -9 9 -9 10 0 14 -9 13
-30 -2 -26 1 -30 18 -28 18 3 22 -3 24 -35 2 -26 -2 -45 -13 -57 -31 -35 -10
-46 22 -13 17 17 33 29 36 27 3 -3 22 -7 43 -10 21 -3 43 -9 48 -14 5 -5 21
-7 35 -4 22 4 28 -1 44 -35 10 -23 27 -41 40 -45 33 -9 83 -7 111 3 21 9 28 6
51 -25 38 -50 75 -82 109 -94 17 -7 39 -16 49 -21 9 -5 27 -7 40 -4 27 6 39
-2 55 -38 7 -16 27 -34 47 -43 60 -25 118 1 130 58 6 26 10 29 32 23 14 -3 30
-2 36 3 7 5 29 13 51 16 32 6 41 4 53 -13 8 -12 21 -21 29 -21 8 0 14 -4 14
-9 0 -13 51 -29 79 -24 24 3 123 55 151 79 8 7 30 12 49 12 18 -1 36 4 40 11
4 6 15 9 24 5 22 -8 47 18 47 49 0 21 16 37 36 37 3 0 10 -13 15 -30 6 -16 15
-30 19 -30 16 0 49 51 44 68 -3 9 8 2 23 -16 33 -36 45 -39 63 -17 7 8 25 15
41 15 15 0 31 5 34 11 4 6 13 8 19 6 24 -9 126 54 126 78 0 4 8 13 17 20 17
12 17 15 0 49 -21 46 -21 49 2 37 23 -13 31 -5 31 29 0 36 6 40 40 27 54 -20
76 33 45 108 -6 15 -1 12 23 -10 53 -51 71 -65 86 -65 37 0 26 46 -26 106
l-33 38 31 -21 c17 -12 37 -29 44 -38 16 -19 39 -19 46 0 4 9 -15 34 -48 67
-45 44 -38 44 10 0 46 -42 73 -32 47 17 -21 41 -19 44 14 26 17 -8 37 -12 45
-9 9 3 16 1 16 -5 0 -20 44 -51 71 -51 82 0 94 137 15 159 l-31 8 30 12 c23
10 26 14 15 21 -8 6 -27 10 -41 10 -15 0 -29 7 -33 15 -3 9 -21 25 -41 36 -19
12 -35 25 -35 30 0 8 42 -12 105 -51 73 -45 139 -4 119 75 -8 34 -56 58 -97
50 l-32 -6 30 17 c17 9 41 18 55 19 14 2 27 4 30 5 3 1 8 2 13 1 4 -1 2 8 -5
19 -19 30 -2 35 50 17 57 -21 62 -21 62 -3 0 8 9 18 21 21 16 5 18 10 8 21
-15 18 3 19 32 2 18 -11 23 -10 40 10 39 48 -17 86 -86 58 -51 -22 -52 -21
-10 19 40 37 39 59 -2 49 -22 -6 -24 -5 -16 11 12 21 6 53 -14 77 -14 15 -12
18 22 32 21 9 42 16 47 16 5 0 6 5 3 11 -4 6 -13 8 -20 6 -7 -3 -19 9 -28 29
-16 32 -15 34 5 48 18 13 23 13 43 0 20 -13 24 -12 51 11 16 14 35 30 42 36
19 15 14 63 -9 93 -16 21 -28 26 -55 24 -55 -3 -61 15 -19 53 21 19 48 44 61
55 34 32 46 90 35 167 -9 67 -27 107 -48 107 -14 0 -43 27 -43 41 0 5 12 9 28
9 37 0 72 26 72 53 0 13 -13 38 -29 57 -26 32 -30 34 -55 22 -22 -10 -28 -9
-32 3 -4 8 -15 15 -25 15 -15 0 -19 7 -19 35 0 24 -6 37 -21 45 -11 6 -19 19
-17 29 2 10 -4 30 -12 45 -12 23 -12 30 0 49 52 83 60 154 23 233 -19 42 -69
94 -90 94 -7 0 -13 4 -13 9 0 5 -13 12 -29 16 -36 8 -80 -12 -146 -65 -68 -55
-87 -66 -78 -43 8 21 35 48 56 56 10 4 14 13 11 21 -6 16 -34 10 -78 -19 -22
-14 -25 -14 -40 0 -21 22 -20 31 6 49 18 13 19 16 5 16 -26 0 -21 11 26 59 23
25 32 39 21 33 -27 -14 -74 -69 -74 -86 0 -15 -58 -72 -65 -64 -15 15 47 97
155 203 66 67 122 129 124 139 1 10 40 54 87 98 46 44 75 74 64 67 -21 -14
-132 -108 -170 -144 -51 -48 -112 -102 -140 -124 -16 -12 -48 -40 -70 -60 -22
-21 -46 -36 -53 -33 -14 4 -16 70 -3 90 4 8 18 12 31 10 33 -5 46 22 30 61 -9
22 -19 31 -36 31 -25 0 -34 -10 -49 -55 -17 -50 -40 -38 -40 20 0 43 -3 50
-20 50 -25 0 -46 41 -35 70 8 20 6 22 -26 18 -27 -3 -32 0 -28 12 6 13 -6 20
-28 16 -5 0 -8 3 -8 8 0 16 -43 -1 -81 -31 -45 -34 -63 -36 -54 -5 4 12 11 26
16 32 5 5 9 20 9 33 0 26 39 102 52 102 4 0 8 4 8 10 0 5 13 31 28 57 30 51
44 83 37 83 -2 0 -21 -30 -41 -66 -43 -76 -110 -164 -126 -164 -7 0 -9 12 -5
33 6 39 1 49 -31 66 -20 11 -29 9 -61 -12 -21 -14 -44 -39 -51 -56 -7 -18 -18
-30 -24 -28 -15 5 -20 52 -8 73 18 32 -49 114 -92 114 -8 0 -16 5 -18 11 -4
13 -58 -6 -58 -21 0 -14 -47 -13 -56 1 -4 7 -22 9 -45 6 -26 -3 -42 0 -50 9
-7 9 -25 14 -42 12 -26 -3 -31 1 -41 29 -9 27 -48 75 -58 72 -2 0 -11 -9 -21
-20z m-1274 -864 c42 -29 51 -46 10 -20 -55 36 -67 45 -58 45 6 0 27 -11 48
-25z m-13 -215 c24 -18 24 -19 3 -14 -12 4 -28 12 -34 20 -17 20 2 17 31 -6z
m2875 -380 c3 -5 -1 -10 -9 -10 -9 0 -16 5 -16 10 0 6 4 10 9 10 6 0 13 -4 16
-10z m-3055 -890 c-11 -20 -40 -28 -40 -10 0 9 28 29 43 30 4 0 3 -9 -3 -20z"/>
<path d="M2834 4275 c-9 -23 3 -45 25 -45 20 0 37 32 26 50 -9 15 -45 12 -51
-5z"/>
<path d="M1720 4136 c0 -8 4 -17 9 -20 5 -4 7 3 4 14 -6 23 -13 26 -13 6z"/>
<path d="M1500 4020 c0 -5 5 -10 11 -10 5 0 7 5 4 10 -3 6 -8 10 -11 10 -2 0
-4 -4 -4 -10z"/>
<path d="M3539 3978 c-50 -66 -52 -68 -46 -68 2 0 23 25 46 55 23 30 40 55 37
55 -2 0 -19 -19 -37 -42z"/>
<path d="M1055 3880 c21 -22 41 -38 43 -35 5 5 -68 75 -77 75 -3 0 12 -18 34
-40z"/>
<path d="M3483 3835 c0 -8 4 -12 9 -9 5 3 6 10 3 15 -9 13 -12 11 -12 -6z"/>
<path d="M4002 3753 c2 -10 10 -18 18 -18 8 0 16 8 18 18 2 12 -3 17 -18 17
-15 0 -20 -5 -18 -17z"/>
<path d="M3820 3670 c0 -5 5 -10 11 -10 5 0 7 5 4 10 -3 6 -8 10 -11 10 -2 0
-4 -4 -4 -10z"/>
<path d="M960 3540 c0 -5 5 -10 11 -10 5 0 7 5 4 10 -3 6 -8 10 -11 10 -2 0
-4 -4 -4 -10z"/>
<path d="M3829 3533 c-13 -16 -12 -17 4 -4 16 13 21 21 13 21 -2 0 -10 -8 -17
-17z"/>
<path d="M822 3451 c-10 -6 -10 -10 2 -20 18 -15 37 -6 29 14 -6 17 -12 18
-31 6z"/>
<path d="M665 3180 c4 -6 11 -8 16 -5 14 9 11 15 -7 15 -8 0 -12 -5 -9 -10z"/>
<path d="M4307 2834 c-8 -8 1 -24 14 -24 5 0 9 7 9 15 0 15 -12 20 -23 9z"/>
<path d="M707 2644 c-8 -8 1 -24 14 -24 5 0 9 7 9 15 0 15 -12 20 -23 9z"/>
<path d="M4343 2535 c-7 -20 2 -29 21 -22 9 4 13 13 10 22 -8 19 -23 19 -31 0z"/>
<path d="M586 2251 c-4 -5 -2 -12 3 -15 5 -4 12 -2 15 3 4 5 2 12 -3 15 -5 4
-12 2 -15 -3z"/>
<path d="M700 2245 c-14 -8 -20 -14 -15 -14 6 0 21 6 35 14 14 8 21 14 15 14
-5 0 -21 -6 -35 -14z"/>
<path d="M4161 2156 c-14 -17 -7 -36 14 -36 22 0 29 20 13 36 -13 13 -16 13
-27 0z"/>
<path d="M4035 1720 c3 -5 8 -10 11 -10 2 0 4 5 4 10 0 6 -5 10 -11 10 -5 0
-7 -4 -4 -10z"/>
<path d="M4083 1684 c-8 -20 8 -36 26 -25 15 10 8 41 -9 41 -6 0 -13 -7 -17
-16z"/>
<path d="M893 1654 c-3 -8 -1 -20 5 -26 15 -15 43 8 35 28 -7 19 -32 18 -40
-2z"/>
<path d="M4186 1597 c-38 -27 2 -96 42 -71 24 16 27 42 6 65 -20 23 -25 23
-48 6z"/>
<path d="M930 1499 c-19 -15 -30 -28 -25 -28 12 0 69 48 64 54 -2 2 -20 -10
-39 -26z"/>
<path d="M860 1449 c-22 -18 -22 -19 -3 -10 12 6 25 16 28 21 9 15 3 12 -25
-11z"/>
<path d="M3990 1350 c0 -6 7 -10 15 -10 8 0 15 2 15 4 0 2 -7 6 -15 10 -8 3
-15 1 -15 -4z"/>
<path d="M1062 1187 c-13 -15 1 -42 17 -33 13 9 15 33 2 40 -5 3 -13 0 -19 -7z"/>
<path d="M1425 1068 c-75 -110 -83 -124 -67 -114 10 6 152 204 152 212 0 18
-25 -11 -85 -98z"/>
</g>
</svg>
