<svg width="350" height="350" xmlns="http://www.w3.org/2000/svg">

 <g>
  <title>background</title>
  <rect fill="none" id="canvas_background" height="352" width="352" y="-1" x="-1"/>
 </g>
 <g>
  <title>Layer 1</title>
  <ellipse stroke="null" ry="174.761901" rx="173.809508" id="svg_28" cy="175.476186" cx="175.523811" stroke-opacity="null" stroke-width="null" fill="#ffffff"/>
  <path id="svg_2" d="m155.821293,41.069698c3.46215,-0.6115 6.52615,-1.10318 10.57362,-1.75268c-8.93161,9.88942 -15.41118,20.21444 -19.87811,31.77041c-8.11522,20.9942 -9.73616,42.72506 -6.81124,64.81485c0.60945,4.60276 -0.41563,7.31829 -3.83711,10.14323c-7.98415,6.59201 -14.34845,14.54775 -16.13985,25.03031c-0.82165,4.80804 -0.13986,9.87301 -0.13986,15.23207c-20.47571,-14.94121 -33.8324,-43.97858 -29.03259,-76.75234c4.96655,-33.91235 32.2265,-62.17871 65.26514,-68.48585z" fill="#020202"/>
  <path id="svg_3" d="m204.241183,45.374288c35.40198,15.5656 55.16162,48.04213 51.759,85.94943c-1.93594,21.56743 -11.61435,39.64394 -27.71405,54.19866c-0.43924,0.39709 -1.06183,0.59135 -2.2041,1.20564c3.84164,-18.70431 -4.98343,-31.46022 -17.76514,-42.64459c-1.3898,-1.21616 -2.27017,-3.9716 -2.08173,-5.88452c1.65619,-16.81304 1.98035,-33.52843 -1.69781,-50.16499c-3.83734,-17.35633 -11.06039,-32.98807 -22.91342,-46.35908c-0.42288,-0.47708 -0.77039,-1.02097 -0.68881,-2.84339c7.64611,2.14349 15.29223,4.28698 23.30606,6.54284z" fill="#020202"/>
  <path id="svg_4" d="m143.166703,131.443488c-2.26337,-22.38875 0.26028,-43.63881 9.24814,-63.90907c1.73404,-3.91073 3.98855,-7.59068 5.66197,-10.73612c5.25085,2.11135 9.91736,5.41653 14.62651,5.47848c4.68756,0.06166 9.41795,-3.133 14.95607,-5.20978c0.03851,0.05484 0.92331,1.13668 1.61734,2.32953c12.92352,22.21209 15.91275,46.46726 13.30655,71.40437c-1.39191,13.31874 -4.845,26.43713 -7.64642,39.58658c-1.22413,5.746 -3.30442,6.93663 -9.8216,6.90629c-0.63684,-5.52527 -0.73001,-11.21881 -2.07614,-16.59883c-1.27127,-5.08093 -3.41943,-10.07886 -5.98579,-14.66327c-2.90828,-5.19517 -4.92154,-5.01573 -8.20819,-0.13437c-5.07754,7.54123 -7.11316,16.03936 -7.63271,24.97579c-0.12413,2.13525 -0.0184,4.28389 -0.0184,6.47854c-5.23557,0.60352 -8.79842,-1.10487 -9.85483,-5.9536c-2.86137,-13.13339 -5.45142,-26.32586 -8.1725,-39.95454m13.78483,-45.32422c-2.87443,10.46245 1.3481,18.59421 11.18854,21.54686c7.98624,2.3963 17.03046,-2.80659 19.52674,-11.23318c2.36517,-7.98397 -1.71991,-16.30431 -9.60811,-19.56941c-8.10213,-3.35367 -16.04674,-0.10961 -21.10717,9.25573z" fill="#3AB7FF"/>
  <path id="svg_5" d="m235.771273,247.888308c0.67346,-9.05978 2.9714,-11.25707 11.39959,-11.34445c16.26835,-0.16864 17.2656,0.81198 17.26587,16.9794c0.00019,11.13581 0.00007,22.27161 0.00007,33.65409c-3.51212,0 -6.77027,0 -10.61405,0c0,-13.9592 0,-27.9921 0,-41.8548c-6.84555,-1.88699 -7.32645,-1.53046 -7.32925,4.92392c-0.00537,12.29355 -0.00156,24.58713 -0.00156,37.02832c-3.66046,0 -6.95972,0 -10.72275,0c0,-13.04977 0,-25.99503 0.00208,-39.38648z" fill="#060607"/>
  <path id="svg_6" d="m226.245543,269.413098c0,6.14355 0,11.78741 0,17.71905c-3.60559,0 -6.99557,0 -10.75018,0c0,-5.36084 0,-10.63632 0,-16.23672c-2.73425,0 -5.11301,0 -7.86798,0c0,5.48272 0,10.76965 0,16.28854c-3.63227,0 -6.90073,0 -10.75989,0c0,-9.2326 -0.01093,-18.49564 0.00461,-27.75861c0.00781,-4.66479 -0.10431,-9.33831 0.14047,-13.992c0.30188,-5.73877 3.021,-8.44959 8.77985,-8.79584c3.81823,-0.22955 7.6726,-0.23297 11.49069,-0.00345c5.8551,0.35199 8.73001,3.30652 8.87796,9.28589c0.18957,7.66046 0.07053,15.32862 0.08447,23.49314m-16.2724,-7.04914c1.74027,0 3.48053,0 5.42285,0c0,-5.76126 0.01206,-10.87002 -0.01553,-15.9786c-0.00336,-0.62476 -0.21884,-1.24836 -0.32398,-1.80823c-7.2514,-1.45664 -7.51751,-1.24774 -7.52099,5.74704c-0.00147,2.97394 -0.1315,5.95688 0.07074,8.91702c0.07266,1.06302 0.9494,2.07111 2.36691,3.12277z" fill="#040404"/>
  <path id="svg_7" d="m185.276453,261.597848c4.13462,7.15524 3.30015,14.42987 0.9867,21.38074c-0.65576,1.97024 -4.24341,3.97567 -6.63077,4.16739c-6.9142,0.55514 -13.90178,0.1965 -21.11496,0.1965c0,-16.63132 0,-33.01554 0,-49.85364c6.96886,0 13.9032,-0.1781 20.82227,0.06986c3.86807,0.13857 6.79007,2.42846 7.2716,6.34906c0.65189,5.30703 2.29392,10.96383 -2.51336,15.50543c-0.16367,0.15463 0.58334,1.27322 1.17852,2.18466m-8.54681,5.02005c-2.4095,-0.44486 -4.819,-0.88971 -7.25819,-1.34006c0,5.50583 0,10.05786 0,14.57746c7.58946,0.50369 7.59358,0.50369 7.5887,-6.41062c-0.00139,-1.9902 -0.03397,-3.98038 -0.33051,-6.82678m-2.32478,-21.95841c-1.59931,0 -3.19861,0 -4.92433,0c0,4.71293 0,9.04526 0,13.65375c2.41653,-0.1568 4.47223,-0.29019 7.29684,-0.47351c-0.55153,-4.67789 -1.0361,-8.78781 -2.37251,-13.18024z" fill="#040505"/>
  <path id="svg_8" d="m74.956333,265.310558c0.15103,4.56976 0.36184,8.73306 0.20619,12.88266c-0.22351,5.95871 -3.13403,8.98977 -8.94077,9.15487c-6.64081,0.18881 -13.29112,0.04377 -20.14186,0.04377c0,-16.65772 0,-33.08625 0,-49.8906c7.03339,0 13.985,-0.28903 20.88646,0.17227c2.13056,0.1424 4.73366,1.87833 6.06003,3.66974c3.23088,4.36368 1.8773,14.49222 -1.76175,18.31421c1.21789,1.7789 2.40285,3.50971 3.6917,5.65308m-10.52994,8.45385c0.00017,-8.96911 0.00017,-8.96911 -7.60013,-7.66342c0,4.5286 0,9.07944 0,13.69541c2.57451,0 4.81642,0 7.60013,0c0,-1.93491 0,-3.55039 0,-6.03199m-7.9543,-26.41201c0,3.55105 0,7.10211 0,10.57565c7.52328,0.66217 7.52373,0.66217 7.5341,-5.70987c0.00214,-1.31619 0.23284,-2.68823 -0.06529,-3.93311c-0.30588,-1.27728 -1.20894,-3.48751 -1.7148,-3.45016c-1.94243,0.14349 -3.83034,1.02505 -5.75401,2.51749z" fill="#030303"/>
  <path id="svg_9" d="m104.852063,248.794598c0.37395,-9.93555 2.68805,-12.21268 12.00005,-12.25745c1.33285,-0.00641 2.66578,-0.00302 3.99867,-0.00076c10.89687,0.01831 13.66591,3.1856 12.53751,14.74823c-1.54695,0.07196 -3.1521,0.17602 -4.75879,0.2131c-1.61786,0.03738 -3.23726,0.00821 -5.25531,0.00821c0,-2.56192 0,-4.65283 0,-6.63763c-7.38374,-1.86173 -7.76555,-1.57294 -7.76749,5.49438c-0.0022,7.99738 -0.00186,15.99475 -0.00006,23.99213c0.00151,6.729 0.00313,6.729 7.37398,5.92349c0,-4.01862 0,-8.08804 0,-12.48248c-1.0502,-0.18793 -2.25704,-0.40387 -3.43337,-0.61435c0,-2.62369 0,-4.89484 0,-7.42243c4.63959,0 9.08123,0 13.75255,0c0,7.21314 0.30953,14.487 -0.11305,21.71811c-0.2646,4.5278 -3.88553,6.37668 -8.06238,6.68115c-3.31566,0.24173 -6.6624,0.17145 -9.99162,0.08918c-7.1425,-0.17649 -10.08132,-2.92148 -10.21065,-10.00919c-0.17628,-9.66031 -0.06079,-19.32596 -0.07004,-29.44369z" fill="#090909"/>
  <path id="svg_10" d="m279.343753,287.642708c-4.53006,-1.46665 -5.94025,-4.79895 -5.99195,-8.6514c-0.14731,-10.97885 -0.2095,-21.96377 -0.00216,-32.94058c0.12063,-6.38504 3.277,-9.2005 9.76788,-9.48508c1.99289,-0.08737 3.99258,-0.0242 5.98917,-0.02206c11.25726,0.01208 13.96832,3.11105 12.71289,14.75427c-3.06833,0 -6.16318,0 -9.24677,0c-0.55151,-2.35715 -0.45547,-5.21191 -1.83267,-6.7316c-0.98489,-1.08679 -3.94522,-0.38339 -6.2226,-0.48785c-0.15884,1.31253 -0.33731,2.10648 -0.33862,2.90073c-0.0184,10.95718 -0.01242,21.91439 -0.01242,34.57309c3.13013,-1.19138 6.93674,-1.50879 7.55744,-3.08265c2.09606,-5.31494 0.03366,-10.56277 -3.56113,-11.61837c0,-2.26615 0,-4.55118 0,-7.08905c4.57818,0 8.99863,0 13.83566,0c0,7.05838 0.30969,14.1574 -0.11459,21.21231c-0.26004,4.32351 -3.42939,6.901 -7.73154,7.08767c-4.79056,0.20786 -9.60703,-0.1828 -14.80859,-0.41943z" fill="#070707"/>
  <path id="svg_11" d="m208.068023,185.745838c-1.14819,-2.45608 -1.76294,-4.93174 -3.28796,-6.54899c-4.52268,-4.7961 -4.03513,-9.78441 -2.03327,-15.47548c1.69617,-4.82208 2.45407,-9.97418 3.637,-15.02208c19.70828,12.1382 21.87313,39.86314 5.34628,55.95737c-1.10568,-5.78266 -2.32514,-12.16036 -3.66205,-18.91082z" fill="#2481B5"/>
  <path id="svg_12" d="m125.345093,190.092428c-5.12103,-16.97571 0.22867,-32.49325 14.10223,-41.31016c1.89666,7.3748 3.87548,14.67811 5.5694,22.04693c0.27701,1.20503 -0.37148,2.9374 -1.15312,4.02164c-6.46588,8.96913 -9.5708,18.87578 -8.66948,29.98392c-0.42629,0.22012 -0.85259,0.44024 -1.27887,0.66037c-2.815,-5.00925 -5.63002,-10.0185 -8.57016,-15.4027z" fill="#2481B5"/>
  <path id="svg_13" d="m188.948453,181.410288c3.25217,-1.59142 6.11331,-3.12486 10.12351,-5.27416c2.88614,7.18105 5.91851,14.726 9.52771,23.70613c-11.23834,2.71177 -20.93961,5.05268 -31.06075,7.49488c1.75112,-8.41559 2.95491,-15.71958 4.99611,-22.7815c0.42932,-1.48527 3.93451,-2.08149 6.41342,-3.14535z" fill="#050505"/>
  <path id="svg_14" d="m166.159943,197.274908c0.83874,3.11164 1.60895,5.80646 2.8315,10.08399c-10.57219,-2.4647 -20.21042,-4.71164 -29.53954,-6.88657c-0.32135,-8.77498 3.2171,-17.75352 8.34621,-23.40947c4.11743,1.74579 7.79727,3.87949 11.7595,4.80768c3.26914,0.76582 4.24215,2.28779 4.60213,5.25966c0.39642,3.27261 1.2674,6.48773 2.0002,10.14471z" fill="#050505"/>
  <path id="svg_15" d="m84.258453,276.390878c0,-13.10931 0,-25.72153 0,-38.66742c3.57123,0 6.9556,0 10.62511,0c0,16.29352 0,32.66626 0,49.36975c-3.2717,0 -6.65996,0 -10.62511,0c0,-3.34079 0,-6.77304 0,-10.70233z" fill="#050505"/>
  <path id="svg_16" d="m174.852753,199.905098c-0.60806,1.73517 -1.07523,3.11493 -1.62407,4.73587c-7.93977,-15.3559 -8.13795,-41.36888 -0.07013,-53.93848c8.65343,16.39599 6.22273,32.57404 1.6942,49.20261z" fill="#3EB8FF"/>
  <path id="svg_17" d="m176.283063,55.857578c-2.02005,0.20724 -3.93127,0.84508 -5.25708,0.22706c-2.74031,-1.27736 -5.53439,-2.90284 -7.47493,-5.1146c-0.50053,-0.57047 1.94148,-3.94832 3.28819,-5.85551c1.60392,-2.27144 3.48405,-4.34784 5.73047,-7.10515c4.24195,4.71127 7.60073,8.44168 11.60619,12.89031c-2.9588,1.8967 -5.23889,3.35829 -7.89284,4.95789z" fill="#2682B6"/>
  <path id="svg_18" d="m157.089383,85.744548c4.92258,-8.99062 12.86719,-12.23468 20.96932,-8.88101c7.8882,3.2651 11.97328,11.58544 9.60811,19.56941c-2.49628,8.42659 -11.5405,13.62948 -19.52674,11.23318c-9.84044,-2.95265 -14.06297,-11.08441 -11.05069,-21.92158m22.93042,-2.79053c-1.14517,-0.65686 -2.2326,-1.45679 -3.4453,-1.94646c-6.07993,-2.455 -12.72698,0.2007 -15.43952,6.09262c-2.66831,5.79587 -0.51339,12.12075 5.22024,15.32183c4.85419,2.71006 11.08286,1.57852 14.85626,-2.69893c4.05536,-4.59706 3.84226,-10.17732 -1.19168,-16.76906z" fill="#EDF8FD"/>
  <path id="svg_24" d="m180.305333,83.212948c4.74841,6.33281 4.96151,11.91307 0.90615,16.51013c-3.7734,4.27745 -10.00207,5.40899 -14.85626,2.69893c-5.73363,-3.20108 -7.88855,-9.52596 -5.22024,-15.32183c2.71254,-5.89192 9.35959,-8.54762 15.43952,-6.09262c1.2127,0.48967 2.30013,1.2896 3.73083,2.20539z" fill="#2481B5"/>
 </g>
</svg>